<?xml version="1.0"?>
<svg xmlns="http://www.w3.org/2000/svg" viewBox="0 0 26 26" enable-background="new 0 0 26 26">
    <path style="text-indent:0;text-align:start;line-height:normal;text-transform:none;block-progression:tb;-inkscape-font-specification:Bitstream Vera Sans" d="M 7 3 C 4.7901961 3 3 4.7901961 3 7 L 3 19 C 3 21.209804 4.7901961 23 7 23 L 19 23 C 21.209804 23 23 21.209804 23 19 L 23 7 C 23 4.7901961 21.209804 3 19 3 L 7 3 z M 7 5 L 19 5 C 20.190196 5 21 5.8098039 21 7 L 21 19 C 21 20.190196 20.190196 21 19 21 L 7 21 C 5.8098039 21 5 20.190196 5 19 L 5 7 C 5 5.8098039 5.8098039 5 7 5 z M 12.3125 8.90625 C 11.75 8.9484375 11.2625 9.0875 10.8125 9.3125 L 10.8125 10.8125 C 11.3125 10.5125 11.80625 10.3125 12.40625 10.3125 C 13.30625 10.3125 13.6875 10.6125 13.6875 11.3125 C 13.6875 12.0125 13.19375 12.40625 12.09375 12.40625 L 11.40625 12.40625 L 11.40625 13.8125 L 12.1875 13.8125 C 12.6875 13.8125 14 14 14 15 C 14 16 13 16.09375 12.5 16.09375 C 11.7 16.09375 11.1 15.9 10.5 15.5 L 10.5 17.09375 C 11.1 17.39375 11.79375 17.59375 12.59375 17.59375 C 13.59375 17.59375 15.8125 17.29375 15.8125 15.09375 C 15.8125 13.59375 14.50625 13.19375 13.90625 13.09375 C 15.00625 12.79375 15.59375 12.1 15.59375 11 C 15.59375 9.2 13.80625 8.90625 12.90625 8.90625 C 12.70625 8.90625 12.5 8.8921875 12.3125 8.90625 z" overflow="visible" enable-background="accumulate" font-family="Bitstream Vera Sans"/>
</svg>
