<?xml version="1.0"?>
<svg xmlns="http://www.w3.org/2000/svg" viewBox="0 0 26 26" enable-background="new 0 0 26 26">
    <path style="text-indent:0;text-align:start;line-height:normal;text-transform:none;block-progression:tb;-inkscape-font-specification:Bitstream Vera Sans" d="M 7 3 C 4.7901961 3 3 4.7901961 3 7 L 3 19 C 3 21.209804 4.7901961 23 7 23 L 19 23 C 21.209804 23 23 21.209804 23 19 L 23 7 C 23 4.7901961 21.209804 3 19 3 L 7 3 z M 7 5 L 19 5 C 20.190196 5 21 5.8098039 21 7 L 21 19 C 21 20.190196 20.190196 21 19 21 L 7 21 C 5.8098039 21 5 20.190196 5 19 L 5 7 C 5 5.8098039 5.8098039 5 7 5 z M 13.09375 8.90625 C 12.19375 8.90625 11.29375 9.09375 10.59375 9.59375 L 10.59375 11.3125 C 11.29375 10.7125 11.9875 10.40625 12.6875 10.40625 C 14.0875 10.40625 14.0125 11.7 13.8125 12 C 12.7125 13.9 10.1875 14.1125 10.1875 16.8125 L 10.1875 17.40625 L 15.8125 17.40625 L 15.8125 15.90625 L 12.1875 15.90625 C 12.1875 14.90625 15.8125 14.0125 15.8125 11.3125 C 15.8125 9.2125 13.89375 8.90625 13.09375 8.90625 z" overflow="visible" enable-background="accumulate" font-family="Bitstream Vera Sans"/>
</svg>
